<?xml version="1.0" encoding="iso-8859-1"?>
<!-- Generator: Adobe Illustrator 16.0.0, SVG Export Plug-In . SVG Version: 6.00 Build 0)  -->
<!DOCTYPE svg PUBLIC "-//W3C//DTD SVG 1.1//EN" "http://www.w3.org/Graphics/SVG/1.1/DTD/svg11.dtd">
<svg version="1.1" id="Capa_1" xmlns="http://www.w3.org/2000/svg" xmlns:xlink="http://www.w3.org/1999/xlink" x="0px" y="0px"
	 width="605.774px" height="605.774px" viewBox="0 0 605.774 605.774" style="enable-background:new 0 0 605.774 605.774;"
	 xml:space="preserve">
<g>
	<path d="M219.167,84.456c-3.366-25.704,14.994-49.572,41.31-53.244s50.184,14.994,53.855,40.698
		c3.366,26.01-14.994,49.572-41.31,53.244C246.707,128.52,222.533,110.466,219.167,84.456z M313.72,266.22
		c-23.255-11.322-54.467-33.966-62.423-77.418c13.158-17.748,9.486-42.534-8.262-55.692c-17.748-13.158-42.534-9.486-55.692,7.956
		c-42.228,56.304-53.55,141.984-30.294,218.79c1.53,4.896,3.978,9.486,6.426,12.852c13.77,17.443,54.774,83.846,7.956,197.371
		c-5.508,13.158,0.918,28.152,14.076,33.354c4.284,1.836,8.874,2.143,13.158,1.836c8.874-1.225,16.83-6.732,20.502-15.605
		c30.906-74.971,29.376-134.641,18.666-177.48c19.278,24.787,37.944,82.926,23.256,163.404
		c-2.448,14.076,6.732,27.234,20.808,29.682c2.754,0.611,5.202,0.611,7.956,0.307c10.71-1.531,19.89-9.486,21.726-20.809
		c13.158-72.521,4.896-144.738-24.479-190.943c-18.054-28.459-39.168-43.453-52.02-50.797
		c-10.098-31.518-12.24-77.724-3.978-109.242c10.71,20.196,25.092,34.884,38.862,45.288c15.912,12.24,32.13,19.89,44.064,24.48
		v39.169c0,11.934,9.485,21.42,21.42,21.42h97.92c11.934,0,21.42-9.486,21.42-21.42V244.8H313.72V266.22z M356.56,205.02h67.32
		c8.568,0,15.3-7.038,15.3-15.3v-45.9c0-8.568-7.038-15.3-15.3-15.3h-67.32c-8.567,0-15.3,7.038-15.3,15.3v45.9
		C341.26,197.982,348.298,205.02,356.56,205.02z M371.861,70.38v33.66c0,8.568,7.037,15.3,15.3,15.3h39.78
		c8.567,0,15.3-7.038,15.3-15.3V70.38c0-8.568-7.038-15.3-15.3-15.3h-39.78C378.898,55.08,371.861,62.118,371.861,70.38z
		 M368.8,48.96h27.234c8.567,0,15.3-7.038,15.3-15.3V15.3c0-8.568-7.038-15.3-15.3-15.3H368.8c-8.568,0-15.3,7.038-15.3,15.3v18.36
		C353.5,41.922,360.539,48.96,368.8,48.96z M307.601,235.62H460.6c0-11.934-9.485-21.42-21.42-21.42H329.02
		C317.086,214.2,307.601,223.686,307.601,235.62z"/>
</g>
<g>
</g>
<g>
</g>
<g>
</g>
<g>
</g>
<g>
</g>
<g>
</g>
<g>
</g>
<g>
</g>
<g>
</g>
<g>
</g>
<g>
</g>
<g>
</g>
<g>
</g>
<g>
</g>
<g>
</g>
</svg>
