<?xml version="1.0" encoding="iso-8859-1"?>
<!-- Generator: Adobe Illustrator 16.0.0, SVG Export Plug-In . SVG Version: 6.00 Build 0)  -->
<!DOCTYPE svg PUBLIC "-//W3C//DTD SVG 1.1//EN" "http://www.w3.org/Graphics/SVG/1.1/DTD/svg11.dtd">
<svg version="1.1" id="Capa_1" xmlns="http://www.w3.org/2000/svg" xmlns:xlink="http://www.w3.org/1999/xlink" x="0px" y="0px"
	 width="470.828px" height="470.828px" viewBox="0 0 470.828 470.828" style="enable-background:new 0 0 470.828 470.828;"
	 xml:space="preserve">
<g>
	<path d="M416.955,308.061c-2.415,0-4.371,1.957-4.371,4.373V459.24c0,1.543-1.305,2.848-2.849,2.848h-33.696v-40.273h11.152
		c2.126,0,3.913-1.055,4.78-2.824s0.608-3.828-0.694-5.514l-23.324-30.098c-1.095-1.416-2.712-2.223-4.439-2.223h-0.042
		c-1.745,0.014-3.367,0.848-4.452,2.291l-22.548,30.062c-1.271,1.691-1.503,3.748-0.627,5.502c0.877,1.754,2.661,2.801,4.775,2.801
		h10.335v40.273H236.246c-4.197,0-7.613-3.414-7.613-7.611V316.662c0-4.195,3.415-7.613,7.613-7.613h145.92
		c2.415,0,4.371-1.957,4.371-4.371s-1.956-4.371-4.371-4.371h-145.92c-9.018,0-16.356,7.336-16.356,16.355v137.812
		c0,9.018,7.337,16.354,16.356,16.354h119.081c2.415,0,4.371-1.955,4.371-4.371v-49.016c0-2.414-1.956-4.371-4.371-4.371h-7.598
		l15.822-21.098l16.352,21.098h-8.236c-2.414,0-4.371,1.957-4.371,4.371v49.016c0,2.416,1.957,4.371,4.371,4.371h38.068
		c6.392,0,11.592-5.199,11.592-11.59V312.432C421.327,310.018,419.368,308.061,416.955,308.061z"/>
	<path d="M253.03,232.558c-9.236-10.7-80.137-92.638-103.119-113.486c18.218-11.931,29.318-32.141,29.318-54.208
		C179.229,29.098,150.131,0,114.365,0C78.598,0,49.501,29.098,49.501,64.865c0,21.854,10.886,41.885,28.79,53.859
		c-14.877,11.25-23.885,28.993-23.885,47.85V443.9c0,14.582,11.862,26.443,26.443,26.443c14.582,0,26.444-11.861,26.444-26.443
		V291.564l13.6-0.004V443.9c0,14.582,11.862,26.443,26.444,26.443s26.444-11.861,26.444-26.432l0.521-226.077l46.604,46.606
		c4.412,4.412,10.206,6.619,16.001,6.619s11.592-2.207,16.003-6.619C261.692,255.656,261.731,241.391,253.03,232.558z
		 M246.73,258.26c-2.625,2.623-6.111,4.068-9.82,4.068c-3.71,0-7.197-1.445-9.82-4.068c0,0-40.018-41.054-54.034-54.036
		c-3.495-3.236-7.471-0.86-7.471,3.07c0,6.222-0.546,236.604-0.546,236.604c0,9.762-7.94,17.701-17.701,17.701
		s-17.701-7.939-17.701-17.701V287.217c0-2.527-0.804-4.396-4.739-4.396c-4.98,0-17.862,0.002-22.838,0.002
		c-2.235,0-3.51,1.102-3.51,4.398v156.678c0,9.762-7.94,17.701-17.701,17.701c-9.76,0-17.701-7.939-17.701-17.701V166.574
		c0-18.155,9.766-35.122,25.487-44.277c0.164-0.096,0.313-0.213,0.467-0.327c0.042-0.032,0.087-0.056,0.127-0.089
		c1.693-1.32,2.52-3.578,1.427-5.452c-0.53-0.913-1.432-1.563-2.446-1.925c-18.49-9.761-29.967-28.752-29.967-49.639
		c0-30.944,25.176-56.122,56.122-56.122s56.122,25.176,56.122,56.122c0,20.983-11.577,40.058-30.211,49.778
		c-1.894,0.988-3.884,4.627-0.104,7.704c9.379,5.613,68.675,72.401,106.34,116.04l0.217,0.233
		C252.141,244.033,252.141,252.848,246.73,258.26z"/>
</g>
<g>
</g>
<g>
</g>
<g>
</g>
<g>
</g>
<g>
</g>
<g>
</g>
<g>
</g>
<g>
</g>
<g>
</g>
<g>
</g>
<g>
</g>
<g>
</g>
<g>
</g>
<g>
</g>
<g>
</g>
</svg>
